<?xml version="1.0" encoding="utf-8"?>
<!-- Generator: Adobe Illustrator 16.0.0, SVG Export Plug-In . SVG Version: 6.00 Build 0)  -->
<!DOCTYPE svg PUBLIC "-//W3C//DTD SVG 1.1//EN" "http://www.w3.org/Graphics/SVG/1.1/DTD/svg11.dtd">
<svg version="1.1" id="Layer_1" xmlns="http://www.w3.org/2000/svg" xmlns:xlink="http://www.w3.org/1999/xlink" x="0px" y="0px"
	 width="40px" height="40px" viewBox="0 0 40 40" style="enable-background:new 0 0 40 40;" xml:space="preserve">
<style type="text/css">
<![CDATA[

	.st37{fill:#FFFFFF;}

]]>
</style>
<g>
	<g>
		<path class="st37" d="M32.9,12.8H7.1c-0.7,0-1.2-0.6-1.2-1.2c0-0.7,0.6-1.2,1.2-1.2h25.8c0.7,0,1.2,0.6,1.2,1.2
			C34.1,12.3,33.6,12.8,32.9,12.8z"/>
	</g>
	<g>
		<path class="st37" d="M32.9,21.2H7.1c-0.7,0-1.2-0.6-1.2-1.2c0-0.7,0.6-1.2,1.2-1.2h25.8c0.7,0,1.2,0.6,1.2,1.2
			C34.1,20.7,33.6,21.2,32.9,21.2z"/>
	</g>
	<g>
		<path class="st37" d="M32.9,29.7H7.1c-0.7,0-1.2-0.6-1.2-1.2c0-0.7,0.6-1.2,1.2-1.2h25.8c0.7,0,1.2,0.6,1.2,1.2
			C34.1,29.1,33.6,29.7,32.9,29.7z"/>
	</g>
</g>
</svg>
